<svg width="149" height="18" viewBox="0 0 149 18" fill="none" xmlns="http://www.w3.org/2000/svg">
<path d="M11.9516 0.487999C12.7836 0.487999 13.5436 0.664 14.2316 1.016C14.9356 1.352 15.4876 1.832 15.8876 2.456C16.3036 3.08 16.5116 3.776 16.5116 4.544C16.5116 6.576 15.5916 7.856 13.7516 8.384V8.48C15.8476 8.96 16.8956 10.336 16.8956 12.608C16.8956 13.472 16.6796 14.24 16.2476 14.912C15.8316 15.568 15.2556 16.08 14.5196 16.448C13.7836 16.816 12.9756 17 12.0956 17H0.959594V0.487999H11.9516ZM6.26359 6.92H9.91159C10.2636 6.92 10.5516 6.8 10.7756 6.56C11.0156 6.304 11.1356 5.992 11.1356 5.624V5.384C11.1356 5.032 11.0156 4.736 10.7756 4.496C10.5356 4.24 10.2476 4.112 9.91159 4.112H6.26359V6.92ZM6.26359 13.16H10.2956C10.6476 13.16 10.9356 13.04 11.1596 12.8C11.3996 12.544 11.5196 12.232 11.5196 11.864V11.624C11.5196 11.256 11.3996 10.952 11.1596 10.712C10.9356 10.456 10.6476 10.328 10.2956 10.328H6.26359V13.16ZM29.8873 17H24.5833V10.592L18.0313 0.487999H24.1273L27.2953 5.984H27.3913L30.5593 0.487999H36.3433L29.8873 10.592V17ZM47.823 4.712V17H42.519V4.712H37.095V0.487999H53.223V4.712H47.823ZM55.6393 0.487999H69.9193V4.448H60.9433V6.728H68.6233V10.52H60.9433V13.04H70.0873V17H55.6393V0.487999ZM84.7676 17L77.8316 8.984V17H72.9596V0.487999H77.5916L84.5276 8.624V0.487999H89.3996V17H84.7676ZM92.9518 0.487999H107.232V4.448H98.2558V6.728H105.936V10.52H98.2558V13.04H107.4V17H92.9518V0.487999ZM122.68 17L120.544 6.944H120.448L118.312 17H112.48L108.616 0.487999H114.136L116.032 9.848H116.128L118 0.487999H123.232L125.224 9.848H125.32L127.096 0.487999H132.376L128.512 17H122.68ZM141.208 0.199999C143.32 0.199999 145.056 0.631999 146.416 1.496C147.776 2.344 148.472 3.608 148.504 5.288V5.576H143.536V5.48C143.536 5 143.36 4.6 143.008 4.28C142.656 3.96 142.12 3.8 141.4 3.8C140.696 3.8 140.152 3.904 139.768 4.112C139.4 4.32 139.216 4.576 139.216 4.88C139.216 5.312 139.472 5.632 139.984 5.84C140.496 6.048 141.32 6.264 142.456 6.488C143.784 6.76 144.872 7.048 145.72 7.352C146.584 7.64 147.336 8.12 147.976 8.792C148.616 9.464 148.944 10.376 148.96 11.528C148.96 13.48 148.296 14.928 146.968 15.872C145.656 16.816 143.896 17.288 141.688 17.288C139.112 17.288 137.104 16.856 135.664 15.992C134.24 15.128 133.528 13.6 133.528 11.408H138.544C138.544 12.24 138.76 12.8 139.192 13.088C139.624 13.36 140.296 13.496 141.208 13.496C141.88 13.496 142.432 13.424 142.864 13.28C143.312 13.136 143.536 12.84 143.536 12.392C143.536 11.992 143.288 11.696 142.792 11.504C142.312 11.296 141.52 11.08 140.416 10.856C139.072 10.568 137.96 10.272 137.08 9.968C136.2 9.648 135.432 9.128 134.776 8.408C134.12 7.688 133.792 6.712 133.792 5.48C133.792 3.672 134.488 2.344 135.88 1.496C137.288 0.631999 139.064 0.199999 141.208 0.199999Z" fill="#60A5FA"/>
</svg>
